<svg width="711.61" height="265.09" xmlns="http://www.w3.org/2000/svg"><defs><clipPath id="a"><path d="M0 792h612V0H0z"/></clipPath></defs><g clip-path="url(#a)" transform="matrix(1.334 0 0 -1.2437 -56.517 624.932)"><path d="M82.334 373.15h35.81c.33-3.54-4.036-2.59-5.355-5.927-3.646-9.077-4.558-18.55-5.955-27.859-.311-2.403-1.24-4.951-1.473-7.433-.31-3.104-1.244-6.77-1.864-10.571-3.725-21.88-21.952-23.849-34.908-23.849-9.002 0-18.325.436-26.069 10.858l15.111 22.023c2.055-.62 2.267-.601 2.267-2.156 0-1.55-2.481-9.309-2.481-10.862 0-7.06 4.5-11.171 10.24-11.171 3.261 0 6.479-.547 9.428 4.805 5.198 9.386 4.776 19.844 6.559 29.697 1.397 7.451 4.186 21.978 4.186 23.53 0 2.095-1.577 5.588-5.496 5.989z" fill="#336fbf" fill-rule="evenodd"/><path d="M82.334 373.15h35.81c.33-3.54-4.036-2.59-5.355-5.927-3.646-9.077-4.558-18.55-5.955-27.859-.311-2.403-1.24-4.951-1.473-7.433-.31-3.104-1.244-6.77-1.864-10.571-3.725-21.88-21.952-23.849-34.908-23.849-9.002 0-18.325.436-26.069 10.858l15.111 22.023c2.055-.62 2.267-.601 2.267-2.156 0-1.55-2.481-9.309-2.481-10.862 0-7.06 4.5-11.171 10.24-11.171 3.261 0 6.479-.547 9.428 4.805 5.198 9.386 4.776 19.844 6.559 29.697 1.397 7.451 4.186 21.978 4.186 23.53 0 2.095-1.577 5.588-5.496 5.989z" fill="none" stroke="#336fbf" stroke-miterlimit="3.864" stroke-width=".25"/><path d="M126.45 374.43c.795.055 1.184-1.188 2.735-1.188h56.326c1.55 0 1.72.531 2.674 1.22.74-21.386 2.849-22.355.023-25.975h-2.235c.002 8.776-10.357 16.845-17.007 16.096-.536-.56-1.13-.525-1.557-1.085-3.237-18.549-9.439-53.873-9.439-55.425 0-2.638-.455-5.973 5.497-6.302.088-.837-.533-2.077-.626-2.918l-37.108.692c1.56 2.795 4.97 2.556 6.598 5.275 5.122 8.611 4.62 19.372 6.557 29.072 1.94 9.776 3.568 19.857 5.44 29.637-.543.494-.015 1.025-1.565 1.025-7.448 0-17.402-4.463-22.198-16.1 0 0-2.848.052-3.553.826z" fill="#336fbf" fill-rule="evenodd"/><path d="M126.45 374.43c.795.055 1.184-1.188 2.735-1.188h56.326c1.55 0 1.72.531 2.674 1.22.74-21.386 2.849-22.355.023-25.975h-2.235c.002 8.776-10.357 16.845-17.007 16.096-.536-.56-1.13-.525-1.557-1.085-3.237-18.549-9.439-53.873-9.439-55.425 0-2.638-.455-5.973 5.497-6.302.088-.837-.533-2.077-.626-2.918l-37.108.692c1.56 2.795 4.97 2.556 6.598 5.275 5.122 8.611 4.62 19.372 6.557 29.072 1.94 9.776 3.568 19.857 5.44 29.637-.543.494-.015 1.025-1.565 1.025-7.448 0-17.402-4.463-22.198-16.1 0 0-2.848.052-3.553.826z" fill="none" stroke="#336fbf" stroke-miterlimit="3.864" stroke-width=".25"/><path d="M216 334.14c0-1.551-6.706-11.314-9.628-15.612-.136-.573-.693 1.338-2.243 1.338h-24.673c-1.55 0-2.422-1.211-3.899-1.85 0 0-.121.696-.831 1.512l10.836 15.231a22.442 22.442 0 002.004-1.873h22.146c5.407.041 6.288 2.122 6.288 1.254" fill="#336fbf" fill-rule="evenodd"/><path d="M216 334.14c0-1.551-6.706-11.314-9.628-15.612-.136-.573-.693 1.338-2.243 1.338h-24.673c-1.55 0-2.422-1.211-3.899-1.85 0 0-.121.696-.831 1.512l10.836 15.231a22.442 22.442 0 002.004-1.873h22.146c5.407.041 6.288 2.122 6.288 1.254z" fill="none" stroke="#336fbf" stroke-miterlimit="3.864" stroke-width=".25"/><path d="M231.39 373.17h33.247c-.546-5.25-5.44-3.576-6.601-8.388-4.269-17.068-9.459-50.82-9.459-52.373 0-6.438 5.274-6.206 7.758-6.206 10.473 0 21.605 9.378 28.39 22.269h2.296v-2.64c.039-1.552-8.679-18.208-13.141-27.571h-56.275c1.195 4.464.996 3.716 1.693 4.257 2.612 1.881 4.109.749 5.467 7.163 3.726 17.843 9.538 53.313 9.538 54.866 0 2.479-.058 3.599-4.297 5.73-.049.788.665 2.245 1.384 2.893" fill="#336fbf" fill-rule="evenodd"/><path d="M231.39 373.17h33.247c-.546-5.25-5.44-3.576-6.601-8.388-4.269-17.068-9.459-50.82-9.459-52.373 0-6.438 5.274-6.206 7.758-6.206 10.473 0 21.605 9.378 28.39 22.269h2.296v-2.64c.039-1.552-8.679-18.208-13.141-27.571h-56.275c1.195 4.464.996 3.716 1.693 4.257 2.612 1.881 4.109.749 5.467 7.163 3.726 17.843 9.538 53.313 9.538 54.866 0 2.479-.058 3.599-4.297 5.73-.049.788.665 2.245 1.384 2.893z" fill="none" stroke="#336fbf" stroke-miterlimit="3.864" stroke-width=".25"/><path d="M302.05 373.15h33.334c.089-4.33-4.729-3.862-5.35-6.5-4.889-18.932-10.697-57.024-10.697-58.577 0-3.569-.796-4.143 3.648-6.35v-2.898h-33.294s-.057.65-.762 1.441c.65 1.43 2.75 2.155 3.837 3.008 1.863 1.475 2.837 3.853 3.377 6.414 3.726 17.844 9.537 53.003 9.537 54.555 0 3.027-.145 3.761-4.297 6.048-.045.781.575 2.021.667 2.859" fill="#336fbf" fill-rule="evenodd"/><path d="M302.05 373.15h33.334c.089-4.33-4.729-3.862-5.35-6.5-4.889-18.932-10.697-57.024-10.697-58.577 0-3.569-.796-4.143 3.648-6.35v-2.898h-33.294s-.057.65-.762 1.441c.65 1.43 2.75 2.155 3.837 3.008 1.863 1.475 2.837 3.853 3.377 6.414 3.726 17.844 9.537 53.003 9.537 54.555 0 3.027-.145 3.761-4.297 6.048-.045.781.575 2.021.667 2.859z" fill="none" stroke="#336fbf" stroke-miterlimit="3.864" stroke-width=".25"/><path d="M346.84 373.18h40.699v-2.907c-1.341-.729-3.031-2.311-3.031-3.862 0-1.553 7.998-12.531 12.653-18.629 1.008 5.353 2.863 15.214 2.863 16.767 0 2.48.799 3.598-3.648 5.729v2.895h19.64s.768.065.768-1.487c0-1.473-5.053-.848-7.301-10.003-4.269-17.69-9.459-52.994-9.459-54.546 0-.932.777-5.274 4.254-5.366.09-.842-.529-2.082-.622-2.955h-20.819c-.72.654-.81 1.492-.685 2.986 4.083-1.197 9.261 6.649 9.197 10.823l-32.533 45.724-9.069-50.335c-.469-2.715 3.03-6.151 5.495-6.243v-2.948h-21.483s-.768-.065-.768 1.485c0 .778 5.981 3.401 7.225 9.375 3.8 17.847 9.535 53.624 9.535 55.175 0 1.863-.052 3.441-4.296 5.42-.051.789.661 2.246 1.385 2.902" fill="#336fbf" fill-rule="evenodd"/><path d="M346.84 373.18h40.699v-2.907c-1.341-.729-3.031-2.311-3.031-3.862 0-1.553 7.998-12.531 12.653-18.629 1.008 5.353 2.863 15.214 2.863 16.767 0 2.48.799 3.598-3.648 5.729v2.895h19.64s.768.065.768-1.487c0-1.473-5.053-.848-7.301-10.003-4.269-17.69-9.459-52.994-9.459-54.546 0-.932.777-5.274 4.254-5.366.09-.842-.529-2.082-.622-2.955h-20.819c-.72.654-.81 1.492-.685 2.986 4.083-1.197 9.261 6.649 9.197 10.823l-32.533 45.724-9.069-50.335c-.469-2.715 3.03-6.151 5.495-6.243v-2.948h-21.483s-.768-.065-.768 1.485c0 .778 5.981 3.401 7.225 9.375 3.8 17.847 9.535 53.624 9.535 55.175 0 1.863-.052 3.441-4.296 5.42-.051.789.661 2.246 1.385 2.902z" fill="none" stroke="#336fbf" stroke-miterlimit="3.864" stroke-width=".25"/><path d="M484.9 375.06l1.935-25.324h-2.905c-3.671 12.63-14.08 16.053-21.839 16.053-8.454 0-10.548-8.145-10.568-14.042v-2.26c1.089-.489 3.12-.456 4.674-.456 3.569 0 12.57.338 13.446 8.593h1.81V329.22c-4.899 1.834-1.748 7.046-7.954 10.382-4.035 2.173-8.52 2.292-12.749 2.014 0 0-.51-.53-.941-1.083-1.374-9.237-4.473-25.949-4.473-27.501 0-6.672 3.413-6.827 8.377-6.827 10.787 0 23.083 6.594 32.121 22.303 2.015.04 2.015-.581 2.901-.724l-14.374-30.22c-.786-.051-1.795 1.193-3.347 1.238h-56.622c-.168 4.683 4.13 4.202 5.293 6.608 1.32 2.715 10.754 51.534 10.754 58.517 0 3.489.794 4.066-3.651 6.354v2.915h54.157c1.552.041 2.422 1.248 3.955 1.864" fill="#336fbf" fill-rule="evenodd"/><path d="M484.9 375.06l1.935-25.324h-2.905c-3.671 12.63-14.08 16.053-21.839 16.053-8.454 0-10.548-8.145-10.568-14.042v-2.26c1.089-.489 3.12-.456 4.674-.456 3.569 0 12.57.338 13.446 8.593h1.81V329.22c-4.899 1.834-1.748 7.046-7.954 10.382-4.035 2.173-8.52 2.292-12.749 2.014 0 0-.51-.53-.941-1.083-1.374-9.237-4.473-25.949-4.473-27.501 0-6.672 3.413-6.827 8.377-6.827 10.787 0 23.083 6.594 32.121 22.303 2.015.04 2.015-.581 2.901-.724l-14.374-30.22c-.786-.051-1.795 1.193-3.347 1.238h-56.622c-.168 4.683 4.13 4.202 5.293 6.608 1.32 2.715 10.754 51.534 10.754 58.517 0 3.489.794 4.066-3.651 6.354v2.915h54.157c1.552.041 2.422 1.248 3.955 1.864z" fill="none" stroke="#336fbf" stroke-miterlimit="3.864" stroke-width=".25"/><path d="M561.71 414.82c1.555 0 5.897-2.483 7.447-2.483 1.555 0 1.646.712.992 1.733 1.631-.524.881-.83 4.438-4.063.019-.13.554-1.902-.973-1.292-2.788.575-6.007 2.381-7.56 2.381-3.955 0-11.743-6.413-13.528-7.19-4.036-1.784-7.863-.206-10.889-4.473-1.164-1.628-.717-4.786-.717-6.338 0-10.859 6.826-12.335 6.826-22.653 0-15.75-24.824-60.404-32.814-69.717-1.398-1.705-7.762-11.28-11.563-11.28-1.554 0-2.622 2.516-4.037 3.405 13.19 7.881 44.071 66.031 44.071 81.627 0 7.212-7.449 13.654-7.449 23.273 0 1.552-.044 5.284 1.975 6.913 1.939 1.629 5.885 1.594 8.756 2.911 3.337 1.552 11.07 7.246 15.025 7.246" fill="#336fbf" fill-rule="evenodd"/><path d="M561.71 414.82c1.555 0 5.897-2.483 7.447-2.483 1.555 0 1.646.712.992 1.733 1.631-.524.881-.83 4.438-4.063.019-.13.554-1.902-.973-1.292-2.788.575-6.007 2.381-7.56 2.381-3.955 0-11.743-6.413-13.528-7.19-4.036-1.784-7.863-.206-10.889-4.473-1.164-1.628-.717-4.786-.717-6.338 0-10.859 6.826-12.335 6.826-22.653 0-15.75-24.824-60.404-32.814-69.717-1.398-1.705-7.762-11.28-11.563-11.28-1.554 0-2.622 2.516-4.037 3.405 13.19 7.881 44.071 66.031 44.071 81.627 0 7.212-7.449 13.654-7.449 23.273 0 1.552-.044 5.284 1.975 6.913 1.939 1.629 5.885 1.594 8.756 2.911 3.337 1.552 11.07 7.246 15.025 7.246z" fill="none" stroke="#336fbf" stroke-miterlimit="3.864" stroke-width=".25"/><path d="M499.16 399.89c1.41-7.049 2.187-14.649 3.425-21.323 1.166-6.207 4.817-17.126 4.817-18.678 0-1.55-4.12-6.817-4.817-9.997-2.328-10.394-2.401-21.083-4.109-31.636-.077-.621-1.318-1.779-1.471-3.099-.388-2.481-.155-6.161-.155-7.714 0-1.552-2.483-4.034-2.483-5.584 0-1.554 1.21-1.413 1.829-2.723v-2.116s-.897-.749-1.68-.7c-.734 1.363-.761 3.308-.978 4.494-.361.57-1.652.424-1.652 1.976s1.869 3.006 2.254 5.023c.854 4.268.932 9.388 1.864 14.275 2.56 13.035 1.282 26.482 8.921 38.783l-7.27 32.252c-5.308-3.092-16.32-8.716-17.872-8.716-1.553 0-2.655 1.915-4.655 3.429z" fill="#336fbf" fill-rule="evenodd"/><path d="M499.16 399.89c1.41-7.049 2.187-14.649 3.425-21.323 1.166-6.207 4.817-17.126 4.817-18.678 0-1.55-4.12-6.817-4.817-9.997-2.328-10.394-2.401-21.083-4.109-31.636-.077-.621-1.318-1.779-1.471-3.099-.388-2.481-.155-6.161-.155-7.714 0-1.552-2.483-4.034-2.483-5.584 0-1.554 1.21-1.413 1.829-2.723v-2.116s-.897-.749-1.68-.7c-.734 1.363-.761 3.308-.978 4.494-.361.57-1.652.424-1.652 1.976s1.869 3.006 2.254 5.023c.854 4.268.932 9.388 1.864 14.275 2.56 13.035 1.282 26.482 8.921 38.783l-7.27 32.252c-5.308-3.092-16.32-8.716-17.872-8.716-1.553 0-2.655 1.915-4.655 3.429z" fill="none" stroke="#336fbf" stroke-miterlimit="3.864" stroke-width=".25"/><path d="M560.47 502.34c10.938 0 15.206-16.059 15.206-22.654 0-6.906-.492-8.348-4.839-18.124-1.008-2.328-.669-6.285-2.299-8.148-2.794-3.182-7.444-4.33-11.016-6.425-2.484-1.474-5.95-4.404-7.811-7.197-1.862-2.794-2.593-6.096-3.238-9.001 1.101-.48 2.922-1.083 4.988-2.071-2.834.152-9.923-1.17-9.923 3.174 0 10.087 10.256 18.975 22.28 25.105 2.251 1.164 1.096 5.583 2.105 7.91.776 1.94 2.625 4.313 3.325 6.796 1.086 3.646 2.082 10.154 2.082 11.705 0 4.888-1.196 10.311-3.91 14.733-.62.93-5.012 2.956-6.332 2.956-1.552 0-5.597-4.021-7.461-5.884-3.026-3.025-7.88-7.176-11.373-11.986-3.18-4.422-3.199-4.707-3.199-8.508 0-1.551-6.448-4.696-10.095-6.635-4.809-2.561-10.608-8.065-15.261-14.038-1.243-1.552-2.833-4.278-3.686-6.139-1.55-3.648-2.482-7.607-4.112-11.175-1.707-3.878-4.783-9.333-4.808-14.378l-25.966 3.023c-4.5 0-5.587.154-5.587-4.346 0-1.551 1.862-19.516 2.93-31.001-.974.68-1.626 1.333-2.131 2.026-.796 6.907-2.659 19.588-2.646 21.138v12.614c1.32 1.34 3.4 1.43 4.952 1.43s15.24-1.864 26.796-3.177c.359 9.632 6.383 22.977 12.511 32.211 6.364 9.541 18.202 13.629 24.8 19.809-.18 7.864 18.285 26.257 23.718 26.257" fill="#336fbf" fill-rule="evenodd"/><path d="M560.47 502.34c10.938 0 15.206-16.059 15.206-22.654 0-6.906-.492-8.348-4.839-18.124-1.008-2.328-.669-6.285-2.299-8.148-2.794-3.182-7.444-4.33-11.016-6.425-2.484-1.474-5.95-4.404-7.811-7.197-1.862-2.794-2.593-6.096-3.238-9.001 1.101-.48 2.922-1.083 4.988-2.071-2.834.152-9.923-1.17-9.923 3.174 0 10.087 10.256 18.975 22.28 25.105 2.251 1.164 1.096 5.583 2.105 7.91.776 1.94 2.625 4.313 3.325 6.796 1.086 3.646 2.082 10.154 2.082 11.705 0 4.888-1.196 10.311-3.91 14.733-.62.93-5.012 2.956-6.332 2.956-1.552 0-5.597-4.021-7.461-5.884-3.026-3.025-7.88-7.176-11.373-11.986-3.18-4.422-3.199-4.707-3.199-8.508 0-1.551-6.448-4.696-10.095-6.635-4.809-2.561-10.608-8.065-15.261-14.038-1.243-1.552-2.833-4.278-3.686-6.139-1.55-3.648-2.482-7.607-4.112-11.175-1.707-3.878-4.783-9.333-4.808-14.378l-25.966 3.023c-4.5 0-5.587.154-5.587-4.346 0-1.551 1.862-19.516 2.93-31.001-.974.68-1.626 1.333-2.131 2.026-.796 6.907-2.659 19.588-2.646 21.138v12.614c1.32 1.34 3.4 1.43 4.952 1.43s15.24-1.864 26.796-3.177c.359 9.632 6.383 22.977 12.511 32.211 6.364 9.541 18.202 13.629 24.8 19.809-.18 7.864 18.285 26.257 23.718 26.257z" fill="none" stroke="#336fbf" stroke-miterlimit="3.864" stroke-width=".25"/><path d="M558.17 420.1a1.253 1.253 0 102.506-.002 1.253 1.253 0 00-2.506.002" fill="#336fbf" fill-rule="evenodd"/><path d="M558.17 420.1a1.253 1.253 0 102.506-.002 1.253 1.253 0 00-2.506.002z" fill="none" stroke="#336fbf" stroke-miterlimit="3.864" stroke-width=".25"/><path d="M550.92 428.89l5.168-2.643" fill="none" stroke="#336fbf" stroke-miterlimit="3.864" stroke-width=".267"/><path d="M555.91 426.43l4.744-3.905" fill="none" stroke="#336fbf" stroke-miterlimit="3.864" stroke-width=".25"/><path d="M560.51 422.69l10.228-8.968" fill="none" stroke="#336fbf" stroke-miterlimit="3.864" stroke-width=".295"/><path d="M494.63 296.33l7.009-5.08" fill="none" stroke="#336fbf" stroke-miterlimit="3.864" stroke-width=".571"/><path d="M470.28 392l6.881-5.847" fill="none" stroke="#336fbf" stroke-miterlimit="3.864" stroke-width=".25"/></g></svg>